<?xml version="1.0" encoding="UTF-8" standalone="no"?>
<!DOCTYPE svg PUBLIC "-//W3C//DTD SVG 1.1//EN"
 "http://www.w3.org/Graphics/SVG/1.1/DTD/svg11.dtd">
<!-- Generated by graphviz version 2.43.0 (0)
 -->
<!-- Title: BoundSplittingTree Pages: 1 -->
<svg width="1958pt" height="859pt"
 viewBox="0.00 0.00 1958.00 859.00" xmlns="http://www.w3.org/2000/svg" xmlns:xlink="http://www.w3.org/1999/xlink">
<g id="graph0" class="graph" transform="scale(1 1) rotate(0) translate(4 855)">
<title>BoundSplittingTree</title>
<polygon fill="white" stroke="transparent" points="-4,4 -4,-855 1954,-855 1954,4 -4,4"/>
<!-- node_1 -->
<g id="node1" class="node">
<title>node_1</title>
<path fill="lightyellow" stroke="black" d="M1077,-851C1077,-851 873,-851 873,-851 867,-851 861,-845 861,-839 861,-839 861,-463 861,-463 861,-457 867,-451 873,-451 873,-451 1077,-451 1077,-451 1083,-451 1089,-457 1089,-463 1089,-463 1089,-839 1089,-839 1089,-845 1083,-851 1077,-851"/>
<text text-anchor="middle" x="975" y="-835.8" font-family="Times,serif" font-size="14.00">Throughput: [0.8500, 4.2200]</text>
<text text-anchor="middle" x="975" y="-820.8" font-family="Times,serif" font-size="14.00">All Throughput:</text>
<text text-anchor="middle" x="975" y="-805.8" font-family="Times,serif" font-size="14.00"> &#160;Slot 0: [0.000, 0.000]</text>
<text text-anchor="middle" x="975" y="-790.8" font-family="Times,serif" font-size="14.00"> &#160;Slot 1: [0.000, 0.000]</text>
<text text-anchor="middle" x="975" y="-775.8" font-family="Times,serif" font-size="14.00"> &#160;Slot 2: [0.000, 0.000]</text>
<text text-anchor="middle" x="975" y="-760.8" font-family="Times,serif" font-size="14.00"> &#160;Slot 3: [0.000, 0.000]</text>
<text text-anchor="middle" x="975" y="-745.8" font-family="Times,serif" font-size="14.00"> &#160;Slot 4: [0.000, 0.000]</text>
<text text-anchor="middle" x="975" y="-730.8" font-family="Times,serif" font-size="14.00"> &#160;Slot 5: [0.000, 0.000]</text>
<text text-anchor="middle" x="975" y="-715.8" font-family="Times,serif" font-size="14.00"> &#160;Slot 6: [0.000, 0.000]</text>
<text text-anchor="middle" x="975" y="-700.8" font-family="Times,serif" font-size="14.00"> &#160;Slot 7: [0.850, 4.220]</text>
<text text-anchor="middle" x="975" y="-669.8" font-family="Times,serif" font-size="14.00">Download Time:</text>
<text text-anchor="middle" x="975" y="-654.8" font-family="Times,serif" font-size="14.00"> &#160;Slot 0: [0.000, 0.000]</text>
<text text-anchor="middle" x="975" y="-639.8" font-family="Times,serif" font-size="14.00"> &#160;Slot 1: [0.000, 0.000]</text>
<text text-anchor="middle" x="975" y="-624.8" font-family="Times,serif" font-size="14.00"> &#160;Slot 2: [0.000, 0.000]</text>
<text text-anchor="middle" x="975" y="-609.8" font-family="Times,serif" font-size="14.00"> &#160;Slot 3: [0.000, 0.000]</text>
<text text-anchor="middle" x="975" y="-594.8" font-family="Times,serif" font-size="14.00"> &#160;Slot 4: [0.000, 0.000]</text>
<text text-anchor="middle" x="975" y="-579.8" font-family="Times,serif" font-size="14.00"> &#160;Slot 5: [0.000, 0.000]</text>
<text text-anchor="middle" x="975" y="-564.8" font-family="Times,serif" font-size="14.00"> &#160;Slot 6: [0.000, 0.000]</text>
<text text-anchor="middle" x="975" y="-549.8" font-family="Times,serif" font-size="14.00"> &#160;Slot 7: [0.410, 1.050]</text>
<text text-anchor="middle" x="975" y="-518.8" font-family="Times,serif" font-size="14.00">Last BR: [0.6628, 0.6628]</text>
<text text-anchor="middle" x="975" y="-503.8" font-family="Times,serif" font-size="14.00">Current BR: [0.1100, 0.1800]</text>
<text text-anchor="middle" x="975" y="-488.8" font-family="Times,serif" font-size="14.00">Buffer: [0.4000, 0.5000]</text>
<text text-anchor="middle" x="975" y="-473.8" font-family="Times,serif" font-size="14.00">Depth: 0</text>
<text text-anchor="middle" x="975" y="-458.8" font-family="Times,serif" font-size="14.00">Status: SPLIT</text>
</g>
<!-- node_2 -->
<g id="node2" class="node">
<title>node_2</title>
<path fill="lightgreen" stroke="black" d="M216,-415C216,-415 12,-415 12,-415 6,-415 0,-409 0,-403 0,-403 0,-12 0,-12 0,-6 6,0 12,0 12,0 216,0 216,0 222,0 228,-6 228,-12 228,-12 228,-403 228,-403 228,-409 222,-415 216,-415"/>
<text text-anchor="middle" x="114" y="-399.8" font-family="Times,serif" font-size="14.00">Throughput: [2.5350, 4.2200]</text>
<text text-anchor="middle" x="114" y="-384.8" font-family="Times,serif" font-size="14.00">All Throughput:</text>
<text text-anchor="middle" x="114" y="-369.8" font-family="Times,serif" font-size="14.00"> &#160;Slot 0: [0.000, 0.000]</text>
<text text-anchor="middle" x="114" y="-354.8" font-family="Times,serif" font-size="14.00"> &#160;Slot 1: [0.000, 0.000]</text>
<text text-anchor="middle" x="114" y="-339.8" font-family="Times,serif" font-size="14.00"> &#160;Slot 2: [0.000, 0.000]</text>
<text text-anchor="middle" x="114" y="-324.8" font-family="Times,serif" font-size="14.00"> &#160;Slot 3: [0.000, 0.000]</text>
<text text-anchor="middle" x="114" y="-309.8" font-family="Times,serif" font-size="14.00"> &#160;Slot 4: [0.000, 0.000]</text>
<text text-anchor="middle" x="114" y="-294.8" font-family="Times,serif" font-size="14.00"> &#160;Slot 5: [0.000, 0.000]</text>
<text text-anchor="middle" x="114" y="-279.8" font-family="Times,serif" font-size="14.00"> &#160;Slot 6: [0.000, 0.000]</text>
<text text-anchor="middle" x="114" y="-264.8" font-family="Times,serif" font-size="14.00"> &#160;Slot 7: [2.535, 4.220]</text>
<text text-anchor="middle" x="114" y="-233.8" font-family="Times,serif" font-size="14.00">Download Time:</text>
<text text-anchor="middle" x="114" y="-218.8" font-family="Times,serif" font-size="14.00"> &#160;Slot 0: [0.000, 0.000]</text>
<text text-anchor="middle" x="114" y="-203.8" font-family="Times,serif" font-size="14.00"> &#160;Slot 1: [0.000, 0.000]</text>
<text text-anchor="middle" x="114" y="-188.8" font-family="Times,serif" font-size="14.00"> &#160;Slot 2: [0.000, 0.000]</text>
<text text-anchor="middle" x="114" y="-173.8" font-family="Times,serif" font-size="14.00"> &#160;Slot 3: [0.000, 0.000]</text>
<text text-anchor="middle" x="114" y="-158.8" font-family="Times,serif" font-size="14.00"> &#160;Slot 4: [0.000, 0.000]</text>
<text text-anchor="middle" x="114" y="-143.8" font-family="Times,serif" font-size="14.00"> &#160;Slot 5: [0.000, 0.000]</text>
<text text-anchor="middle" x="114" y="-128.8" font-family="Times,serif" font-size="14.00"> &#160;Slot 6: [0.000, 0.000]</text>
<text text-anchor="middle" x="114" y="-113.8" font-family="Times,serif" font-size="14.00"> &#160;Slot 7: [0.410, 1.050]</text>
<text text-anchor="middle" x="114" y="-82.8" font-family="Times,serif" font-size="14.00">Last BR: [0.6628, 0.6628]</text>
<text text-anchor="middle" x="114" y="-67.8" font-family="Times,serif" font-size="14.00">Current BR: [0.1100, 0.1800]</text>
<text text-anchor="middle" x="114" y="-52.8" font-family="Times,serif" font-size="14.00">Buffer: [0.4000, 0.5000]</text>
<text text-anchor="middle" x="114" y="-37.8" font-family="Times,serif" font-size="14.00">Depth: 1</text>
<text text-anchor="middle" x="114" y="-22.8" font-family="Times,serif" font-size="14.00">Status: SAFE</text>
<text text-anchor="middle" x="114" y="-7.8" font-family="Times,serif" font-size="14.00">✓ Action: 1</text>
</g>
<!-- node_1&#45;&gt;node_2 -->
<g id="edge1" class="edge">
<title>node_1&#45;&gt;node_2</title>
<path fill="none" stroke="black" d="M860.79,-638.95C704.85,-618.66 423.41,-562.97 237,-415 236.72,-414.78 236.45,-414.56 236.17,-414.34"/>
<polygon fill="black" stroke="black" points="238.24,-411.5 228.34,-407.73 233.73,-416.85 238.24,-411.5"/>
</g>
<!-- node_4 -->
<g id="node3" class="node">
<title>node_4</title>
<path fill="lightgreen" stroke="black" d="M462,-415C462,-415 258,-415 258,-415 252,-415 246,-409 246,-403 246,-403 246,-12 246,-12 246,-6 252,0 258,0 258,0 462,0 462,0 468,0 474,-6 474,-12 474,-12 474,-403 474,-403 474,-409 468,-415 462,-415"/>
<text text-anchor="middle" x="360" y="-399.8" font-family="Times,serif" font-size="14.00">Throughput: [1.6925, 2.5350]</text>
<text text-anchor="middle" x="360" y="-384.8" font-family="Times,serif" font-size="14.00">All Throughput:</text>
<text text-anchor="middle" x="360" y="-369.8" font-family="Times,serif" font-size="14.00"> &#160;Slot 0: [0.000, 0.000]</text>
<text text-anchor="middle" x="360" y="-354.8" font-family="Times,serif" font-size="14.00"> &#160;Slot 1: [0.000, 0.000]</text>
<text text-anchor="middle" x="360" y="-339.8" font-family="Times,serif" font-size="14.00"> &#160;Slot 2: [0.000, 0.000]</text>
<text text-anchor="middle" x="360" y="-324.8" font-family="Times,serif" font-size="14.00"> &#160;Slot 3: [0.000, 0.000]</text>
<text text-anchor="middle" x="360" y="-309.8" font-family="Times,serif" font-size="14.00"> &#160;Slot 4: [0.000, 0.000]</text>
<text text-anchor="middle" x="360" y="-294.8" font-family="Times,serif" font-size="14.00"> &#160;Slot 5: [0.000, 0.000]</text>
<text text-anchor="middle" x="360" y="-279.8" font-family="Times,serif" font-size="14.00"> &#160;Slot 6: [0.000, 0.000]</text>
<text text-anchor="middle" x="360" y="-264.8" font-family="Times,serif" font-size="14.00"> &#160;Slot 7: [1.692, 2.535]</text>
<text text-anchor="middle" x="360" y="-233.8" font-family="Times,serif" font-size="14.00">Download Time:</text>
<text text-anchor="middle" x="360" y="-218.8" font-family="Times,serif" font-size="14.00"> &#160;Slot 0: [0.000, 0.000]</text>
<text text-anchor="middle" x="360" y="-203.8" font-family="Times,serif" font-size="14.00"> &#160;Slot 1: [0.000, 0.000]</text>
<text text-anchor="middle" x="360" y="-188.8" font-family="Times,serif" font-size="14.00"> &#160;Slot 2: [0.000, 0.000]</text>
<text text-anchor="middle" x="360" y="-173.8" font-family="Times,serif" font-size="14.00"> &#160;Slot 3: [0.000, 0.000]</text>
<text text-anchor="middle" x="360" y="-158.8" font-family="Times,serif" font-size="14.00"> &#160;Slot 4: [0.000, 0.000]</text>
<text text-anchor="middle" x="360" y="-143.8" font-family="Times,serif" font-size="14.00"> &#160;Slot 5: [0.000, 0.000]</text>
<text text-anchor="middle" x="360" y="-128.8" font-family="Times,serif" font-size="14.00"> &#160;Slot 6: [0.000, 0.000]</text>
<text text-anchor="middle" x="360" y="-113.8" font-family="Times,serif" font-size="14.00"> &#160;Slot 7: [0.410, 1.050]</text>
<text text-anchor="middle" x="360" y="-82.8" font-family="Times,serif" font-size="14.00">Last BR: [0.6628, 0.6628]</text>
<text text-anchor="middle" x="360" y="-67.8" font-family="Times,serif" font-size="14.00">Current BR: [0.1100, 0.1800]</text>
<text text-anchor="middle" x="360" y="-52.8" font-family="Times,serif" font-size="14.00">Buffer: [0.4000, 0.5000]</text>
<text text-anchor="middle" x="360" y="-37.8" font-family="Times,serif" font-size="14.00">Depth: 2</text>
<text text-anchor="middle" x="360" y="-22.8" font-family="Times,serif" font-size="14.00">Status: SAFE</text>
<text text-anchor="middle" x="360" y="-7.8" font-family="Times,serif" font-size="14.00">✓ Action: 1</text>
</g>
<!-- node_1&#45;&gt;node_4 -->
<g id="edge2" class="edge">
<title>node_1&#45;&gt;node_4</title>
<path fill="none" stroke="black" d="M860.94,-616.86C753.47,-581.07 592.96,-515.33 483,-415 482.54,-414.58 482.09,-414.16 481.63,-413.74"/>
<polygon fill="black" stroke="black" points="483.99,-411.15 474.36,-406.74 479.13,-416.19 483.99,-411.15"/>
</g>
<!-- node_7 -->
<g id="node4" class="node">
<title>node_7</title>
<path fill="lightgreen" stroke="black" d="M708,-415C708,-415 504,-415 504,-415 498,-415 492,-409 492,-403 492,-403 492,-12 492,-12 492,-6 498,0 504,0 504,0 708,0 708,0 714,0 720,-6 720,-12 720,-12 720,-403 720,-403 720,-409 714,-415 708,-415"/>
<text text-anchor="middle" x="606" y="-399.8" font-family="Times,serif" font-size="14.00">Throughput: [1.4819, 1.6925]</text>
<text text-anchor="middle" x="606" y="-384.8" font-family="Times,serif" font-size="14.00">All Throughput:</text>
<text text-anchor="middle" x="606" y="-369.8" font-family="Times,serif" font-size="14.00"> &#160;Slot 0: [0.000, 0.000]</text>
<text text-anchor="middle" x="606" y="-354.8" font-family="Times,serif" font-size="14.00"> &#160;Slot 1: [0.000, 0.000]</text>
<text text-anchor="middle" x="606" y="-339.8" font-family="Times,serif" font-size="14.00"> &#160;Slot 2: [0.000, 0.000]</text>
<text text-anchor="middle" x="606" y="-324.8" font-family="Times,serif" font-size="14.00"> &#160;Slot 3: [0.000, 0.000]</text>
<text text-anchor="middle" x="606" y="-309.8" font-family="Times,serif" font-size="14.00"> &#160;Slot 4: [0.000, 0.000]</text>
<text text-anchor="middle" x="606" y="-294.8" font-family="Times,serif" font-size="14.00"> &#160;Slot 5: [0.000, 0.000]</text>
<text text-anchor="middle" x="606" y="-279.8" font-family="Times,serif" font-size="14.00"> &#160;Slot 6: [0.000, 0.000]</text>
<text text-anchor="middle" x="606" y="-264.8" font-family="Times,serif" font-size="14.00"> &#160;Slot 7: [1.482, 1.692]</text>
<text text-anchor="middle" x="606" y="-233.8" font-family="Times,serif" font-size="14.00">Download Time:</text>
<text text-anchor="middle" x="606" y="-218.8" font-family="Times,serif" font-size="14.00"> &#160;Slot 0: [0.000, 0.000]</text>
<text text-anchor="middle" x="606" y="-203.8" font-family="Times,serif" font-size="14.00"> &#160;Slot 1: [0.000, 0.000]</text>
<text text-anchor="middle" x="606" y="-188.8" font-family="Times,serif" font-size="14.00"> &#160;Slot 2: [0.000, 0.000]</text>
<text text-anchor="middle" x="606" y="-173.8" font-family="Times,serif" font-size="14.00"> &#160;Slot 3: [0.000, 0.000]</text>
<text text-anchor="middle" x="606" y="-158.8" font-family="Times,serif" font-size="14.00"> &#160;Slot 4: [0.000, 0.000]</text>
<text text-anchor="middle" x="606" y="-143.8" font-family="Times,serif" font-size="14.00"> &#160;Slot 5: [0.000, 0.000]</text>
<text text-anchor="middle" x="606" y="-128.8" font-family="Times,serif" font-size="14.00"> &#160;Slot 6: [0.000, 0.000]</text>
<text text-anchor="middle" x="606" y="-113.8" font-family="Times,serif" font-size="14.00"> &#160;Slot 7: [0.410, 1.050]</text>
<text text-anchor="middle" x="606" y="-82.8" font-family="Times,serif" font-size="14.00">Last BR: [0.6628, 0.6628]</text>
<text text-anchor="middle" x="606" y="-67.8" font-family="Times,serif" font-size="14.00">Current BR: [0.1100, 0.1800]</text>
<text text-anchor="middle" x="606" y="-52.8" font-family="Times,serif" font-size="14.00">Buffer: [0.4000, 0.5000]</text>
<text text-anchor="middle" x="606" y="-37.8" font-family="Times,serif" font-size="14.00">Depth: 4</text>
<text text-anchor="middle" x="606" y="-22.8" font-family="Times,serif" font-size="14.00">Status: SAFE</text>
<text text-anchor="middle" x="606" y="-7.8" font-family="Times,serif" font-size="14.00">✓ Action: 1</text>
</g>
<!-- node_1&#45;&gt;node_7 -->
<g id="edge3" class="edge">
<title>node_1&#45;&gt;node_7</title>
<path fill="none" stroke="black" d="M860.78,-552.94C816.89,-512.67 768.01,-463.97 729,-415 728.07,-413.83 727.13,-412.65 726.2,-411.46"/>
<polygon fill="black" stroke="black" points="728.97,-409.31 720.09,-403.52 723.42,-413.58 728.97,-409.31"/>
</g>
<!-- node_9 -->
<g id="node5" class="node">
<title>node_9</title>
<path fill="lightgreen" stroke="black" d="M954,-415C954,-415 750,-415 750,-415 744,-415 738,-409 738,-403 738,-403 738,-12 738,-12 738,-6 744,0 750,0 750,0 954,0 954,0 960,0 966,-6 966,-12 966,-12 966,-403 966,-403 966,-409 960,-415 954,-415"/>
<text text-anchor="middle" x="852" y="-399.8" font-family="Times,serif" font-size="14.00">Throughput: [1.3766, 1.4819]</text>
<text text-anchor="middle" x="852" y="-384.8" font-family="Times,serif" font-size="14.00">All Throughput:</text>
<text text-anchor="middle" x="852" y="-369.8" font-family="Times,serif" font-size="14.00"> &#160;Slot 0: [0.000, 0.000]</text>
<text text-anchor="middle" x="852" y="-354.8" font-family="Times,serif" font-size="14.00"> &#160;Slot 1: [0.000, 0.000]</text>
<text text-anchor="middle" x="852" y="-339.8" font-family="Times,serif" font-size="14.00"> &#160;Slot 2: [0.000, 0.000]</text>
<text text-anchor="middle" x="852" y="-324.8" font-family="Times,serif" font-size="14.00"> &#160;Slot 3: [0.000, 0.000]</text>
<text text-anchor="middle" x="852" y="-309.8" font-family="Times,serif" font-size="14.00"> &#160;Slot 4: [0.000, 0.000]</text>
<text text-anchor="middle" x="852" y="-294.8" font-family="Times,serif" font-size="14.00"> &#160;Slot 5: [0.000, 0.000]</text>
<text text-anchor="middle" x="852" y="-279.8" font-family="Times,serif" font-size="14.00"> &#160;Slot 6: [0.000, 0.000]</text>
<text text-anchor="middle" x="852" y="-264.8" font-family="Times,serif" font-size="14.00"> &#160;Slot 7: [1.377, 1.482]</text>
<text text-anchor="middle" x="852" y="-233.8" font-family="Times,serif" font-size="14.00">Download Time:</text>
<text text-anchor="middle" x="852" y="-218.8" font-family="Times,serif" font-size="14.00"> &#160;Slot 0: [0.000, 0.000]</text>
<text text-anchor="middle" x="852" y="-203.8" font-family="Times,serif" font-size="14.00"> &#160;Slot 1: [0.000, 0.000]</text>
<text text-anchor="middle" x="852" y="-188.8" font-family="Times,serif" font-size="14.00"> &#160;Slot 2: [0.000, 0.000]</text>
<text text-anchor="middle" x="852" y="-173.8" font-family="Times,serif" font-size="14.00"> &#160;Slot 3: [0.000, 0.000]</text>
<text text-anchor="middle" x="852" y="-158.8" font-family="Times,serif" font-size="14.00"> &#160;Slot 4: [0.000, 0.000]</text>
<text text-anchor="middle" x="852" y="-143.8" font-family="Times,serif" font-size="14.00"> &#160;Slot 5: [0.000, 0.000]</text>
<text text-anchor="middle" x="852" y="-128.8" font-family="Times,serif" font-size="14.00"> &#160;Slot 6: [0.000, 0.000]</text>
<text text-anchor="middle" x="852" y="-113.8" font-family="Times,serif" font-size="14.00"> &#160;Slot 7: [0.410, 1.050]</text>
<text text-anchor="middle" x="852" y="-82.8" font-family="Times,serif" font-size="14.00">Last BR: [0.6628, 0.6628]</text>
<text text-anchor="middle" x="852" y="-67.8" font-family="Times,serif" font-size="14.00">Current BR: [0.1100, 0.1800]</text>
<text text-anchor="middle" x="852" y="-52.8" font-family="Times,serif" font-size="14.00">Buffer: [0.4000, 0.5000]</text>
<text text-anchor="middle" x="852" y="-37.8" font-family="Times,serif" font-size="14.00">Depth: 5</text>
<text text-anchor="middle" x="852" y="-22.8" font-family="Times,serif" font-size="14.00">Status: SAFE</text>
<text text-anchor="middle" x="852" y="-7.8" font-family="Times,serif" font-size="14.00">✓ Action: 1</text>
</g>
<!-- node_1&#45;&gt;node_9 -->
<g id="edge4" class="edge">
<title>node_1&#45;&gt;node_9</title>
<path fill="none" stroke="black" d="M919.53,-450.88C917.12,-442.24 914.7,-433.56 912.28,-424.88"/>
<polygon fill="black" stroke="black" points="915.61,-423.79 909.56,-415.09 908.87,-425.67 915.61,-423.79"/>
</g>
<!-- node_11 -->
<g id="node6" class="node">
<title>node_11</title>
<path fill="lightgreen" stroke="black" d="M1200,-415C1200,-415 996,-415 996,-415 990,-415 984,-409 984,-403 984,-403 984,-12 984,-12 984,-6 990,0 996,0 996,0 1200,0 1200,0 1206,0 1212,-6 1212,-12 1212,-12 1212,-403 1212,-403 1212,-409 1206,-415 1200,-415"/>
<text text-anchor="middle" x="1098" y="-399.8" font-family="Times,serif" font-size="14.00">Throughput: [1.3239, 1.3766]</text>
<text text-anchor="middle" x="1098" y="-384.8" font-family="Times,serif" font-size="14.00">All Throughput:</text>
<text text-anchor="middle" x="1098" y="-369.8" font-family="Times,serif" font-size="14.00"> &#160;Slot 0: [0.000, 0.000]</text>
<text text-anchor="middle" x="1098" y="-354.8" font-family="Times,serif" font-size="14.00"> &#160;Slot 1: [0.000, 0.000]</text>
<text text-anchor="middle" x="1098" y="-339.8" font-family="Times,serif" font-size="14.00"> &#160;Slot 2: [0.000, 0.000]</text>
<text text-anchor="middle" x="1098" y="-324.8" font-family="Times,serif" font-size="14.00"> &#160;Slot 3: [0.000, 0.000]</text>
<text text-anchor="middle" x="1098" y="-309.8" font-family="Times,serif" font-size="14.00"> &#160;Slot 4: [0.000, 0.000]</text>
<text text-anchor="middle" x="1098" y="-294.8" font-family="Times,serif" font-size="14.00"> &#160;Slot 5: [0.000, 0.000]</text>
<text text-anchor="middle" x="1098" y="-279.8" font-family="Times,serif" font-size="14.00"> &#160;Slot 6: [0.000, 0.000]</text>
<text text-anchor="middle" x="1098" y="-264.8" font-family="Times,serif" font-size="14.00"> &#160;Slot 7: [1.324, 1.377]</text>
<text text-anchor="middle" x="1098" y="-233.8" font-family="Times,serif" font-size="14.00">Download Time:</text>
<text text-anchor="middle" x="1098" y="-218.8" font-family="Times,serif" font-size="14.00"> &#160;Slot 0: [0.000, 0.000]</text>
<text text-anchor="middle" x="1098" y="-203.8" font-family="Times,serif" font-size="14.00"> &#160;Slot 1: [0.000, 0.000]</text>
<text text-anchor="middle" x="1098" y="-188.8" font-family="Times,serif" font-size="14.00"> &#160;Slot 2: [0.000, 0.000]</text>
<text text-anchor="middle" x="1098" y="-173.8" font-family="Times,serif" font-size="14.00"> &#160;Slot 3: [0.000, 0.000]</text>
<text text-anchor="middle" x="1098" y="-158.8" font-family="Times,serif" font-size="14.00"> &#160;Slot 4: [0.000, 0.000]</text>
<text text-anchor="middle" x="1098" y="-143.8" font-family="Times,serif" font-size="14.00"> &#160;Slot 5: [0.000, 0.000]</text>
<text text-anchor="middle" x="1098" y="-128.8" font-family="Times,serif" font-size="14.00"> &#160;Slot 6: [0.000, 0.000]</text>
<text text-anchor="middle" x="1098" y="-113.8" font-family="Times,serif" font-size="14.00"> &#160;Slot 7: [0.410, 1.050]</text>
<text text-anchor="middle" x="1098" y="-82.8" font-family="Times,serif" font-size="14.00">Last BR: [0.6628, 0.6628]</text>
<text text-anchor="middle" x="1098" y="-67.8" font-family="Times,serif" font-size="14.00">Current BR: [0.1100, 0.1800]</text>
<text text-anchor="middle" x="1098" y="-52.8" font-family="Times,serif" font-size="14.00">Buffer: [0.4000, 0.5000]</text>
<text text-anchor="middle" x="1098" y="-37.8" font-family="Times,serif" font-size="14.00">Depth: 6</text>
<text text-anchor="middle" x="1098" y="-22.8" font-family="Times,serif" font-size="14.00">Status: SAFE</text>
<text text-anchor="middle" x="1098" y="-7.8" font-family="Times,serif" font-size="14.00">✓ Action: 1</text>
</g>
<!-- node_1&#45;&gt;node_11 -->
<g id="edge5" class="edge">
<title>node_1&#45;&gt;node_11</title>
<path fill="none" stroke="black" d="M1030.47,-450.88C1032.88,-442.24 1035.3,-433.56 1037.72,-424.88"/>
<polygon fill="black" stroke="black" points="1041.13,-425.67 1040.44,-415.09 1034.39,-423.79 1041.13,-425.67"/>
</g>
<!-- node_13 -->
<g id="node7" class="node">
<title>node_13</title>
<path fill="lightgreen" stroke="black" d="M1446,-415C1446,-415 1242,-415 1242,-415 1236,-415 1230,-409 1230,-403 1230,-403 1230,-12 1230,-12 1230,-6 1236,0 1242,0 1242,0 1446,0 1446,0 1452,0 1458,-6 1458,-12 1458,-12 1458,-403 1458,-403 1458,-409 1452,-415 1446,-415"/>
<text text-anchor="middle" x="1344" y="-399.8" font-family="Times,serif" font-size="14.00">Throughput: [1.2976, 1.3239]</text>
<text text-anchor="middle" x="1344" y="-384.8" font-family="Times,serif" font-size="14.00">All Throughput:</text>
<text text-anchor="middle" x="1344" y="-369.8" font-family="Times,serif" font-size="14.00"> &#160;Slot 0: [0.000, 0.000]</text>
<text text-anchor="middle" x="1344" y="-354.8" font-family="Times,serif" font-size="14.00"> &#160;Slot 1: [0.000, 0.000]</text>
<text text-anchor="middle" x="1344" y="-339.8" font-family="Times,serif" font-size="14.00"> &#160;Slot 2: [0.000, 0.000]</text>
<text text-anchor="middle" x="1344" y="-324.8" font-family="Times,serif" font-size="14.00"> &#160;Slot 3: [0.000, 0.000]</text>
<text text-anchor="middle" x="1344" y="-309.8" font-family="Times,serif" font-size="14.00"> &#160;Slot 4: [0.000, 0.000]</text>
<text text-anchor="middle" x="1344" y="-294.8" font-family="Times,serif" font-size="14.00"> &#160;Slot 5: [0.000, 0.000]</text>
<text text-anchor="middle" x="1344" y="-279.8" font-family="Times,serif" font-size="14.00"> &#160;Slot 6: [0.000, 0.000]</text>
<text text-anchor="middle" x="1344" y="-264.8" font-family="Times,serif" font-size="14.00"> &#160;Slot 7: [1.298, 1.324]</text>
<text text-anchor="middle" x="1344" y="-233.8" font-family="Times,serif" font-size="14.00">Download Time:</text>
<text text-anchor="middle" x="1344" y="-218.8" font-family="Times,serif" font-size="14.00"> &#160;Slot 0: [0.000, 0.000]</text>
<text text-anchor="middle" x="1344" y="-203.8" font-family="Times,serif" font-size="14.00"> &#160;Slot 1: [0.000, 0.000]</text>
<text text-anchor="middle" x="1344" y="-188.8" font-family="Times,serif" font-size="14.00"> &#160;Slot 2: [0.000, 0.000]</text>
<text text-anchor="middle" x="1344" y="-173.8" font-family="Times,serif" font-size="14.00"> &#160;Slot 3: [0.000, 0.000]</text>
<text text-anchor="middle" x="1344" y="-158.8" font-family="Times,serif" font-size="14.00"> &#160;Slot 4: [0.000, 0.000]</text>
<text text-anchor="middle" x="1344" y="-143.8" font-family="Times,serif" font-size="14.00"> &#160;Slot 5: [0.000, 0.000]</text>
<text text-anchor="middle" x="1344" y="-128.8" font-family="Times,serif" font-size="14.00"> &#160;Slot 6: [0.000, 0.000]</text>
<text text-anchor="middle" x="1344" y="-113.8" font-family="Times,serif" font-size="14.00"> &#160;Slot 7: [0.410, 1.050]</text>
<text text-anchor="middle" x="1344" y="-82.8" font-family="Times,serif" font-size="14.00">Last BR: [0.6628, 0.6628]</text>
<text text-anchor="middle" x="1344" y="-67.8" font-family="Times,serif" font-size="14.00">Current BR: [0.1100, 0.1800]</text>
<text text-anchor="middle" x="1344" y="-52.8" font-family="Times,serif" font-size="14.00">Buffer: [0.4000, 0.5000]</text>
<text text-anchor="middle" x="1344" y="-37.8" font-family="Times,serif" font-size="14.00">Depth: 7</text>
<text text-anchor="middle" x="1344" y="-22.8" font-family="Times,serif" font-size="14.00">Status: SAFE</text>
<text text-anchor="middle" x="1344" y="-7.8" font-family="Times,serif" font-size="14.00">✓ Action: 1</text>
</g>
<!-- node_1&#45;&gt;node_13 -->
<g id="edge6" class="edge">
<title>node_1&#45;&gt;node_13</title>
<path fill="none" stroke="black" d="M1089.22,-552.94C1133.11,-512.67 1181.99,-463.97 1221,-415 1221.93,-413.83 1222.87,-412.65 1223.8,-411.46"/>
<polygon fill="black" stroke="black" points="1226.58,-413.58 1229.91,-403.52 1221.03,-409.31 1226.58,-413.58"/>
</g>
<!-- node_48 -->
<g id="node8" class="node">
<title>node_48</title>
<path fill="lightgreen" stroke="black" d="M1692,-415C1692,-415 1488,-415 1488,-415 1482,-415 1476,-409 1476,-403 1476,-403 1476,-12 1476,-12 1476,-6 1482,0 1488,0 1488,0 1692,0 1692,0 1698,0 1704,-6 1704,-12 1704,-12 1704,-403 1704,-403 1704,-409 1698,-415 1692,-415"/>
<text text-anchor="middle" x="1590" y="-399.8" font-family="Times,serif" font-size="14.00">Throughput: [1.0606, 1.0738]</text>
<text text-anchor="middle" x="1590" y="-384.8" font-family="Times,serif" font-size="14.00">All Throughput:</text>
<text text-anchor="middle" x="1590" y="-369.8" font-family="Times,serif" font-size="14.00"> &#160;Slot 0: [0.000, 0.000]</text>
<text text-anchor="middle" x="1590" y="-354.8" font-family="Times,serif" font-size="14.00"> &#160;Slot 1: [0.000, 0.000]</text>
<text text-anchor="middle" x="1590" y="-339.8" font-family="Times,serif" font-size="14.00"> &#160;Slot 2: [0.000, 0.000]</text>
<text text-anchor="middle" x="1590" y="-324.8" font-family="Times,serif" font-size="14.00"> &#160;Slot 3: [0.000, 0.000]</text>
<text text-anchor="middle" x="1590" y="-309.8" font-family="Times,serif" font-size="14.00"> &#160;Slot 4: [0.000, 0.000]</text>
<text text-anchor="middle" x="1590" y="-294.8" font-family="Times,serif" font-size="14.00"> &#160;Slot 5: [0.000, 0.000]</text>
<text text-anchor="middle" x="1590" y="-279.8" font-family="Times,serif" font-size="14.00"> &#160;Slot 6: [0.000, 0.000]</text>
<text text-anchor="middle" x="1590" y="-264.8" font-family="Times,serif" font-size="14.00"> &#160;Slot 7: [1.061, 1.074]</text>
<text text-anchor="middle" x="1590" y="-233.8" font-family="Times,serif" font-size="14.00">Download Time:</text>
<text text-anchor="middle" x="1590" y="-218.8" font-family="Times,serif" font-size="14.00"> &#160;Slot 0: [0.000, 0.000]</text>
<text text-anchor="middle" x="1590" y="-203.8" font-family="Times,serif" font-size="14.00"> &#160;Slot 1: [0.000, 0.000]</text>
<text text-anchor="middle" x="1590" y="-188.8" font-family="Times,serif" font-size="14.00"> &#160;Slot 2: [0.000, 0.000]</text>
<text text-anchor="middle" x="1590" y="-173.8" font-family="Times,serif" font-size="14.00"> &#160;Slot 3: [0.000, 0.000]</text>
<text text-anchor="middle" x="1590" y="-158.8" font-family="Times,serif" font-size="14.00"> &#160;Slot 4: [0.000, 0.000]</text>
<text text-anchor="middle" x="1590" y="-143.8" font-family="Times,serif" font-size="14.00"> &#160;Slot 5: [0.000, 0.000]</text>
<text text-anchor="middle" x="1590" y="-128.8" font-family="Times,serif" font-size="14.00"> &#160;Slot 6: [0.000, 0.000]</text>
<text text-anchor="middle" x="1590" y="-113.8" font-family="Times,serif" font-size="14.00"> &#160;Slot 7: [0.410, 1.050]</text>
<text text-anchor="middle" x="1590" y="-82.8" font-family="Times,serif" font-size="14.00">Last BR: [0.6628, 0.6628]</text>
<text text-anchor="middle" x="1590" y="-67.8" font-family="Times,serif" font-size="14.00">Current BR: [0.1100, 0.1800]</text>
<text text-anchor="middle" x="1590" y="-52.8" font-family="Times,serif" font-size="14.00">Buffer: [0.4000, 0.5000]</text>
<text text-anchor="middle" x="1590" y="-37.8" font-family="Times,serif" font-size="14.00">Depth: 8</text>
<text text-anchor="middle" x="1590" y="-22.8" font-family="Times,serif" font-size="14.00">Status: SAFE</text>
<text text-anchor="middle" x="1590" y="-7.8" font-family="Times,serif" font-size="14.00">✓ Action: 2</text>
</g>
<!-- node_1&#45;&gt;node_48 -->
<g id="edge7" class="edge">
<title>node_1&#45;&gt;node_48</title>
<path fill="none" stroke="black" d="M1089.06,-616.86C1196.53,-581.07 1357.04,-515.33 1467,-415 1467.46,-414.58 1467.91,-414.16 1468.37,-413.74"/>
<polygon fill="black" stroke="black" points="1470.87,-416.19 1475.64,-406.74 1466.01,-411.15 1470.87,-416.19"/>
</g>
<!-- node_49 -->
<g id="node9" class="node">
<title>node_49</title>
<path fill="lightgreen" stroke="black" d="M1938,-415C1938,-415 1734,-415 1734,-415 1728,-415 1722,-409 1722,-403 1722,-403 1722,-12 1722,-12 1722,-6 1728,0 1734,0 1734,0 1938,0 1938,0 1944,0 1950,-6 1950,-12 1950,-12 1950,-403 1950,-403 1950,-409 1944,-415 1938,-415"/>
<text text-anchor="middle" x="1836" y="-399.8" font-family="Times,serif" font-size="14.00">Throughput: [0.8500, 1.0606]</text>
<text text-anchor="middle" x="1836" y="-384.8" font-family="Times,serif" font-size="14.00">All Throughput:</text>
<text text-anchor="middle" x="1836" y="-369.8" font-family="Times,serif" font-size="14.00"> &#160;Slot 0: [0.000, 0.000]</text>
<text text-anchor="middle" x="1836" y="-354.8" font-family="Times,serif" font-size="14.00"> &#160;Slot 1: [0.000, 0.000]</text>
<text text-anchor="middle" x="1836" y="-339.8" font-family="Times,serif" font-size="14.00"> &#160;Slot 2: [0.000, 0.000]</text>
<text text-anchor="middle" x="1836" y="-324.8" font-family="Times,serif" font-size="14.00"> &#160;Slot 3: [0.000, 0.000]</text>
<text text-anchor="middle" x="1836" y="-309.8" font-family="Times,serif" font-size="14.00"> &#160;Slot 4: [0.000, 0.000]</text>
<text text-anchor="middle" x="1836" y="-294.8" font-family="Times,serif" font-size="14.00"> &#160;Slot 5: [0.000, 0.000]</text>
<text text-anchor="middle" x="1836" y="-279.8" font-family="Times,serif" font-size="14.00"> &#160;Slot 6: [0.000, 0.000]</text>
<text text-anchor="middle" x="1836" y="-264.8" font-family="Times,serif" font-size="14.00"> &#160;Slot 7: [0.850, 1.061]</text>
<text text-anchor="middle" x="1836" y="-233.8" font-family="Times,serif" font-size="14.00">Download Time:</text>
<text text-anchor="middle" x="1836" y="-218.8" font-family="Times,serif" font-size="14.00"> &#160;Slot 0: [0.000, 0.000]</text>
<text text-anchor="middle" x="1836" y="-203.8" font-family="Times,serif" font-size="14.00"> &#160;Slot 1: [0.000, 0.000]</text>
<text text-anchor="middle" x="1836" y="-188.8" font-family="Times,serif" font-size="14.00"> &#160;Slot 2: [0.000, 0.000]</text>
<text text-anchor="middle" x="1836" y="-173.8" font-family="Times,serif" font-size="14.00"> &#160;Slot 3: [0.000, 0.000]</text>
<text text-anchor="middle" x="1836" y="-158.8" font-family="Times,serif" font-size="14.00"> &#160;Slot 4: [0.000, 0.000]</text>
<text text-anchor="middle" x="1836" y="-143.8" font-family="Times,serif" font-size="14.00"> &#160;Slot 5: [0.000, 0.000]</text>
<text text-anchor="middle" x="1836" y="-128.8" font-family="Times,serif" font-size="14.00"> &#160;Slot 6: [0.000, 0.000]</text>
<text text-anchor="middle" x="1836" y="-113.8" font-family="Times,serif" font-size="14.00"> &#160;Slot 7: [0.410, 1.050]</text>
<text text-anchor="middle" x="1836" y="-82.8" font-family="Times,serif" font-size="14.00">Last BR: [0.6628, 0.6628]</text>
<text text-anchor="middle" x="1836" y="-67.8" font-family="Times,serif" font-size="14.00">Current BR: [0.1100, 0.1800]</text>
<text text-anchor="middle" x="1836" y="-52.8" font-family="Times,serif" font-size="14.00">Buffer: [0.4000, 0.5000]</text>
<text text-anchor="middle" x="1836" y="-37.8" font-family="Times,serif" font-size="14.00">Depth: 4</text>
<text text-anchor="middle" x="1836" y="-22.8" font-family="Times,serif" font-size="14.00">Status: SAFE</text>
<text text-anchor="middle" x="1836" y="-7.8" font-family="Times,serif" font-size="14.00">✓ Action: 2</text>
</g>
<!-- node_1&#45;&gt;node_49 -->
<g id="edge8" class="edge">
<title>node_1&#45;&gt;node_49</title>
<path fill="none" stroke="black" d="M1089.21,-638.95C1245.15,-618.66 1526.59,-562.97 1713,-415 1713.28,-414.78 1713.55,-414.56 1713.83,-414.34"/>
<polygon fill="black" stroke="black" points="1716.27,-416.85 1721.66,-407.73 1711.76,-411.5 1716.27,-416.85"/>
</g>
</g>
</svg>
